<svg width="80" height="80" viewBox="0 0 80 80" fill="none" xmlns="http://www.w3.org/2000/svg">
<rect width="80" height="80" rx="40" fill="#01050F"/>
<path d="M52.375 43C50.9658 43 49.5883 43.4179 48.4166 44.2008C47.2449 44.9837 46.3316 46.0965 45.7924 47.3984C45.2531 48.7003 45.112 50.1329 45.3869 51.515C45.6618 52.8971 46.3404 54.1667 47.3369 55.1631C48.3333 56.1596 49.6029 56.8382 50.985 57.1131C52.3671 57.388 53.7997 57.2469 55.1016 56.7076C56.4035 56.1684 57.5163 55.2551 58.2992 54.0834C59.0821 52.9117 59.5 51.5342 59.5 50.125C59.4941 48.2372 58.7415 46.4283 57.4066 45.0934C56.0717 43.7585 54.2628 43.0059 52.375 43ZM27.625 43C26.2158 43 24.8383 43.4179 23.6666 44.2008C22.4949 44.9837 21.5816 46.0965 21.0424 47.3984C20.5031 48.7003 20.362 50.1329 20.6369 51.515C20.9118 52.8971 21.5904 54.1667 22.5869 55.1631C23.5833 56.1596 24.8529 56.8382 26.235 57.1131C27.6171 57.388 29.0497 57.2469 30.3516 56.7076C31.6535 56.1684 32.7663 55.2551 33.5492 54.0834C34.3321 52.9117 34.75 51.5342 34.75 50.125C34.7441 48.2372 33.9915 46.4283 32.6566 45.0934C31.3217 43.7585 29.5128 43.0059 27.625 43Z" stroke="white" stroke-width="4" stroke-miterlimit="10"/>
<path d="M40 49.75V41.6875L34 37.75L41.5 29.5L45.25 36.25H50.5" stroke="white" stroke-width="4" stroke-linecap="round" stroke-linejoin="round"/>
<path d="M46 28.75C46.3951 28.7513 46.7866 28.6744 47.1519 28.5235C47.5171 28.3726 47.8487 28.1509 48.1277 27.871C48.4067 27.5912 48.6274 27.2588 48.7771 26.8931C48.9269 26.5275 49.0026 26.1357 49 25.7406C49.0044 25.3474 48.9303 24.9574 48.7822 24.5932C48.634 24.229 48.4147 23.8979 48.1371 23.6195C47.8596 23.341 47.5292 23.1207 47.1655 22.9714C46.8018 22.8221 46.4119 22.7468 46.0188 22.75C45.6248 22.7487 45.2344 22.8251 44.87 22.9747C44.5055 23.1244 44.1741 23.3443 43.8947 23.622C43.3303 24.1829 43.0119 24.9449 43.0094 25.7406C43.0069 26.5362 43.3206 27.3003 43.8814 27.8647C44.4423 28.429 45.2044 28.7475 46 28.75Z" fill="white"/>
</svg>
