<svg width="80" height="80" viewBox="0 0 80 80" fill="none" xmlns="http://www.w3.org/2000/svg">
<rect width="80" height="80" rx="40" fill="#01050F"/>
<path d="M47.528 24C48.6421 24 49.7342 24.3103 50.682 24.8959C51.6297 25.4816 52.3956 26.3196 52.894 27.316L55.66 32.846C56.148 32.646 56.634 32.444 57.106 32.21C57.5808 31.9729 58.1302 31.9341 58.6336 32.1021C59.1369 32.2702 59.5529 32.6313 59.79 33.106C60.0271 33.5807 60.0659 34.1302 59.8979 34.6336C59.7299 35.1369 59.3688 35.5529 58.894 35.79C57.906 36.282 57.454 36.434 57.454 36.434L59.366 40.26C59.784 41.094 60 42.012 60 42.944V48C60 48.8442 59.8219 49.6788 59.4772 50.4494C59.1326 51.22 58.6292 51.9092 58 52.472V55C58 55.7956 57.684 56.5587 57.1213 57.1213C56.5587 57.6839 55.7957 58 55 58C54.2044 58 53.4413 57.6839 52.8787 57.1213C52.3161 56.5587 52 55.7956 52 55V54H28V55C28 55.7956 27.684 56.5587 27.1213 57.1213C26.5587 57.6839 25.7957 58 25 58C24.2044 58 23.4413 57.6839 22.8787 57.1213C22.3161 56.5587 22 55.7956 22 55V52.472C20.772 51.372 20 49.776 20 48V42.944C20.0004 42.0129 20.2175 41.0947 20.634 40.262L22.546 36.434C22.0614 36.2335 21.5826 36.0194 21.11 35.792C20.8743 35.675 20.6639 35.5127 20.4911 35.3143C20.3182 35.1159 20.1861 34.8853 20.1025 34.6358C20.0189 34.3863 19.9854 34.1227 20.0038 33.8602C20.0223 33.5977 20.0923 33.3414 20.21 33.106C20.452 32.6334 20.8703 32.275 21.3745 32.1084C21.8786 31.9419 22.4281 31.9805 22.904 32.216C23.376 32.4427 23.8547 32.6527 24.34 32.846L27.106 27.316C27.6044 26.3196 28.3704 25.4816 29.3181 24.8959C30.2658 24.3103 31.3579 24 32.472 24H47.528ZM53.668 37.808C50.268 38.882 45.43 40 40 40C34.57 40 29.732 38.88 26.332 37.808L24.212 42.048C24.0726 42.3261 24 42.6329 24 42.944V48C24 48.5304 24.2107 49.0391 24.5858 49.4142C24.9609 49.7893 25.4696 50 26 50H54C54.5305 50 55.0392 49.7893 55.4142 49.4142C55.7893 49.0391 56 48.5304 56 48V42.944C55.9997 42.6336 55.9271 42.3275 55.788 42.05L53.668 37.808ZM31 42C31.7957 42 32.5587 42.3161 33.1213 42.8787C33.684 43.4413 34 44.2044 34 45C34 45.7956 33.684 46.5587 33.1213 47.1213C32.5587 47.6839 31.7957 48 31 48C30.2044 48 29.4413 47.6839 28.8787 47.1213C28.3161 46.5587 28 45.7956 28 45C28 44.2044 28.3161 43.4413 28.8787 42.8787C29.4413 42.3161 30.2044 42 31 42ZM49 42C49.7957 42 50.5587 42.3161 51.1213 42.8787C51.684 43.4413 52 44.2044 52 45C52 45.7956 51.684 46.5587 51.1213 47.1213C50.5587 47.6839 49.7957 48 49 48C48.2044 48 47.4413 47.6839 46.8787 47.1213C46.3161 46.5587 46 45.7956 46 45C46 44.2044 46.3161 43.4413 46.8787 42.8787C47.4413 42.3161 48.2044 42 49 42ZM47.528 28H32.472C32.1007 28.0002 31.7368 28.1038 31.421 28.2991C31.1052 28.4944 30.85 28.7738 30.684 29.106L28.144 34.18C31.24 35.11 35.412 36 40 36C44.588 36 48.76 35.11 51.854 34.18L49.316 29.106C49.15 28.7738 48.8949 28.4944 48.5791 28.2991C48.2633 28.1038 47.8993 28.0002 47.528 28Z" fill="white"/>
</svg>
