<svg width="56" height="57" viewBox="0 0 56 57" fill="none" xmlns="http://www.w3.org/2000/svg">
<g id="instagram icon">
<path id="Vector" d="M31.7568 29.067C31.7427 29.8062 31.5094 30.5245 31.0866 31.131C30.6638 31.7374 30.0705 32.2047 29.3818 32.4736C28.6931 32.7424 27.9401 32.8007 27.2182 32.6412C26.4964 32.4816 25.8381 32.1113 25.327 31.5772C24.8158 31.0431 24.4747 30.3692 24.3469 29.641C24.2192 28.9129 24.3105 28.1631 24.6093 27.4869C24.9081 26.8107 25.401 26.2384 26.0254 25.8426C26.6498 25.4468 27.3777 25.2453 28.1168 25.2637C29.0989 25.3 30.0282 25.7175 30.7077 26.4275C31.3872 27.1375 31.7635 28.0842 31.7568 29.067Z" fill="#01050F"/>
<path id="Vector_2" d="M34.4469 17.377H21.7886C20.5361 17.377 19.3348 17.8746 18.4492 18.7603C17.5635 19.6459 17.0659 20.8472 17.0659 22.0997V35.0427C17.0659 35.6629 17.1881 36.277 17.4254 36.85C17.6627 37.4229 18.0106 37.9436 18.4492 38.3821C18.8877 38.8207 19.4083 39.1685 19.9813 39.4059C20.5543 39.6432 21.1684 39.7653 21.7886 39.7653H34.4469C35.0671 39.7653 35.6812 39.6432 36.2542 39.4059C36.8272 39.1685 37.3478 38.8207 37.7863 38.3821C38.2249 37.9436 38.5728 37.4229 38.8101 36.85C39.0474 36.277 39.1696 35.6629 39.1696 35.0427V22.123C39.172 21.501 39.0517 20.8847 38.8156 20.3093C38.5794 19.7339 38.232 19.2108 37.7932 18.7699C37.3545 18.329 36.8331 17.979 36.2589 17.74C35.6847 17.501 35.0689 17.3776 34.4469 17.377ZM28.1166 35.3974C26.8635 35.4256 25.6304 35.0799 24.5747 34.4043C23.5189 33.7287 22.6885 32.7539 22.1892 31.6042C21.6899 30.4545 21.5445 29.1822 21.7716 27.9495C21.9986 26.7168 22.5878 25.5798 23.4639 24.6834C24.34 23.7871 25.4634 23.1721 26.6905 22.917C27.9177 22.6619 29.193 22.7782 30.3538 23.2511C31.5146 23.724 32.5081 24.532 33.2076 25.572C33.9072 26.6121 34.2809 27.8369 34.2813 29.0903C34.2914 29.9095 34.1399 30.7226 33.8355 31.4831C33.531 32.2436 33.0796 32.9366 32.507 33.5224C31.9344 34.1082 31.2519 34.5754 30.4985 34.8971C29.7451 35.2188 28.9357 35.3888 28.1166 35.3974ZM34.9673 22.7857C34.8133 22.7857 34.6609 22.755 34.5189 22.6954C34.3769 22.6358 34.2483 22.5485 34.1405 22.4385C34.0328 22.3285 33.948 22.1982 33.8912 22.0551C33.8345 21.912 33.8068 21.759 33.8099 21.605C33.8099 21.2919 33.9343 20.9916 34.1557 20.7702C34.3771 20.5487 34.6775 20.4243 34.9906 20.4243C35.3037 20.4243 35.604 20.5487 35.8254 20.7702C36.0469 20.9916 36.1713 21.2919 36.1713 21.605C36.1759 21.7717 36.1444 21.9374 36.0791 22.0908C36.0137 22.2442 35.916 22.3817 35.7926 22.4938C35.6691 22.6059 35.5229 22.6901 35.364 22.7405C35.205 22.7908 35.0371 22.8063 34.8716 22.7857H34.9673Z" fill="#01050F"/>
<path id="Vector_3" d="M28.1166 5.16667C21.9282 5.13573 15.981 7.56438 11.5832 11.9184C7.1855 16.2723 4.69749 22.195 4.66655 28.3833C4.63561 34.5717 7.06426 40.5189 11.4182 44.9167C15.7722 49.3144 21.6948 51.8024 27.8832 51.8333C30.9474 51.8487 33.9846 51.2603 36.8214 50.1018C39.6582 48.9434 42.239 47.2375 44.4165 45.0817C46.5941 42.9258 48.3257 40.3621 49.5124 37.5371C50.6992 34.712 51.3179 31.6808 51.3332 28.6167C51.3485 25.5525 50.7602 22.5153 49.6017 19.6785C48.4433 16.8417 46.7374 14.2609 44.5815 12.0833C42.4257 9.90581 39.862 8.17423 37.0369 6.98746C34.2119 5.8007 31.1807 5.18199 28.1166 5.16667ZM42.2869 34.8047C42.2934 35.8515 42.092 36.8892 41.6945 37.8576C41.297 38.826 40.7112 39.7059 39.9711 40.4462C39.231 41.1865 38.3513 41.7726 37.383 42.1704C36.4147 42.5682 35.377 42.7699 34.3302 42.7637H21.9076C20.8607 42.7702 19.8231 42.5688 18.8546 42.1713C17.8862 41.7738 17.0063 41.188 16.266 40.4479C15.5257 39.7077 14.9396 38.828 14.5418 37.8597C14.144 36.8915 13.9424 35.8538 13.9486 34.807V22.382C13.942 21.3352 14.1434 20.2975 14.5409 19.3291C14.9385 18.3607 15.5243 17.4808 16.2644 16.7405C17.0045 16.0001 17.8842 15.4141 18.8525 15.0163C19.8208 14.6185 20.8584 14.4168 21.9052 14.423H34.3302C35.3768 14.4168 36.4143 14.6184 37.3824 15.0161C38.3506 15.4137 39.2302 15.9996 39.9702 16.7397C40.7103 17.4797 41.2962 18.3593 41.6938 19.3275C42.0915 20.2956 42.2931 21.3331 42.2869 22.3797V34.8047Z" fill="#01050F"/>
</g>
</svg>
