<svg width="80" height="80" viewBox="0 0 80 80" fill="none" xmlns="http://www.w3.org/2000/svg">
<rect width="80" height="80" rx="40" fill="#01050F"/>
<path d="M33 50C33.5304 50 34.0391 49.7893 34.4142 49.4142C34.7893 49.0391 35 48.5304 35 48C35.0095 47.8668 35.0095 47.7332 35 47.6C34.9793 47.4744 34.9388 47.3529 34.88 47.24C34.8354 47.1129 34.7749 46.9919 34.7 46.88L34.46 46.58C34.2698 46.3979 34.0455 46.2552 33.8 46.16C33.4261 45.984 33.0069 45.9281 32.6 46L32.24 46.12L31.88 46.3C31.7762 46.3751 31.6761 46.4552 31.58 46.54L31.34 46.84C31.2651 46.9519 31.2046 47.0729 31.16 47.2C31.1012 47.3129 31.0607 47.4344 31.04 47.56C31.0305 47.6932 31.0305 47.8268 31.04 47.96C31.04 48.4904 31.2507 48.9991 31.6258 49.3742C32.0009 49.7493 32.5096 49.96 33.04 49.96L33 50ZM49 50C49.5304 50 50.0391 49.7893 50.4142 49.4142C50.7893 49.0391 51 48.5304 51 48C51.0095 47.8668 51.0095 47.7332 51 47.6C50.9793 47.4744 50.9388 47.3529 50.88 47.24C50.8354 47.1129 50.7749 46.9919 50.7 46.88L50.46 46.58C50.2645 46.4048 50.0415 46.263 49.8 46.16C49.3131 45.96 48.7669 45.96 48.28 46.16C48.0385 46.263 47.8155 46.4048 47.62 46.58L47.38 46.88C47.3051 46.9919 47.2446 47.1129 47.2 47.24C47.1412 47.3529 47.1007 47.4744 47.08 47.6C47.0705 47.7332 47.0705 47.8668 47.08 48C47.0822 48.5247 47.2905 49.0275 47.66 49.4C48.0145 49.7626 48.4934 49.9771 49 50ZM43 26H39C38.4696 26 37.9609 26.2107 37.5858 26.5858C37.2107 26.9609 37 27.4696 37 28C37 28.5304 37.2107 29.0391 37.5858 29.4142C37.9609 29.7893 38.4696 30 39 30H43C43.5304 30 44.0391 29.7893 44.4142 29.4142C44.7893 29.0391 45 28.5304 45 28C45 27.4696 44.7893 26.9609 44.4142 26.5858C44.0391 26.2107 43.5304 26 43 26ZM53 20H29C27.4087 20 25.8826 20.6321 24.7574 21.7574C23.6321 22.8826 23 24.4087 23 26V50C23.0035 51.2379 23.3898 52.4444 24.1059 53.4541C24.822 54.4639 25.8329 55.2274 27 55.64V58C27 58.5304 27.2107 59.0391 27.5858 59.4142C27.9609 59.7893 28.4696 60 29 60C29.5304 60 30.0391 59.7893 30.4142 59.4142C30.7893 59.0391 31 58.5304 31 58V56H51V58C51 58.5304 51.2107 59.0391 51.5858 59.4142C51.9609 59.7893 52.4696 60 53 60C53.5304 60 54.0391 59.7893 54.4142 59.4142C54.7893 59.0391 55 58.5304 55 58V55.64C56.1671 55.2274 57.178 54.4639 57.8941 53.4541C58.6102 52.4444 58.9965 51.2379 59 50V26C59 24.4087 58.3679 22.8826 57.2426 21.7574C56.1174 20.6321 54.5913 20 53 20ZM55 50C55 50.5304 54.7893 51.0391 54.4142 51.4142C54.0391 51.7893 53.5304 52 53 52H29C28.4696 52 27.9609 51.7893 27.5858 51.4142C27.2107 51.0391 27 50.5304 27 50V44H55V50ZM55 40H27V26C27 25.4696 27.2107 24.9609 27.5858 24.5858C27.9609 24.2107 28.4696 24 29 24H53C53.5304 24 54.0391 24.2107 54.4142 24.5858C54.7893 24.9609 55 25.4696 55 26V40Z" fill="white"/>
</svg>
