<svg width="56" height="57" viewBox="0 0 56 57" fill="none" xmlns="http://www.w3.org/2000/svg">
<g id="telegram icon">
<path id="Vector" fill-rule="evenodd" clip-rule="evenodd" d="M4.66675 28.5C4.66675 15.613 15.1131 5.16669 28.0001 5.16669C40.8871 5.16669 51.3334 15.613 51.3334 28.5C51.3334 41.387 40.8871 51.8334 28.0001 51.8334C15.1131 51.8334 4.66675 41.387 4.66675 28.5ZM38.4137 21.1407L35.8704 37.425C35.8352 37.6492 35.7449 37.8611 35.6077 38.0418C35.4704 38.2225 35.2905 38.3663 35.0841 38.4604C34.8776 38.5545 34.651 38.5959 34.4246 38.581C34.1982 38.566 33.979 38.4951 33.7867 38.3747L25.2677 33.0384C25.0907 32.9276 24.9413 32.7779 24.8309 32.6007C24.7205 32.4235 24.652 32.2234 24.6306 32.0157C24.6092 31.808 24.6356 31.5981 24.7076 31.4021C24.7796 31.2061 24.8953 31.0292 25.0461 30.8847L32.1161 24.1087C32.1954 24.034 32.1021 23.9104 32.0087 23.9664L21.7607 30.0984C21.1517 30.4647 20.4307 30.5907 19.7307 30.4554L16.0207 29.739C14.6814 29.48 14.4971 27.6414 15.7547 27.121L35.5951 18.9194C35.9328 18.7799 36.3016 18.7328 36.6635 18.7831C37.0255 18.8333 37.3675 18.979 37.6545 19.2051C37.9415 19.4313 38.1631 19.7298 38.2965 20.07C38.43 20.4101 38.4704 20.7797 38.4137 21.1407Z" fill="#01050F"/>
</g>
</svg>
