<svg width="40" height="40" viewBox="0 0 40 40" fill="none" xmlns="http://www.w3.org/2000/svg">
<path d="M20 3.33331C16.7036 3.33331 13.4813 4.3108 10.7405 6.14215C7.99966 7.97351 5.86346 10.5765 4.60199 13.6219C3.34053 16.6674 3.01048 20.0185 3.65357 23.2515C4.29665 26.4845 5.884 29.4542 8.21487 31.7851C10.5457 34.116 13.5155 35.7033 16.7485 36.3464C19.9815 36.9895 23.3326 36.6594 26.378 35.398C29.4235 34.1365 32.0265 32.0003 33.8578 29.2595C35.6892 26.5187 36.6667 23.2963 36.6667 20C36.6622 15.5811 34.9049 11.3444 31.7802 8.21974C28.6556 5.09509 24.4189 3.33773 20 3.33331ZM29.8983 16.1883V17.265C29.8983 17.3474 29.8819 17.429 29.8498 17.5049C29.8178 17.5808 29.7709 17.6495 29.7119 17.707C29.6528 17.7645 29.5828 17.8096 29.5061 17.8396C29.4293 17.8696 29.3474 17.8839 29.265 17.8816C27.5053 17.7573 25.8217 17.1148 24.4267 16.035V23.915C24.4263 24.7871 24.2522 25.6504 23.9145 26.4545C23.5768 27.2586 23.0824 27.9874 22.46 28.5983C21.8325 29.2252 21.0862 29.7206 20.2649 30.0554C19.4435 30.3903 18.5636 30.5578 17.6767 30.5483C15.8931 30.5457 14.1812 29.8459 12.9067 28.5983C12.0956 27.7807 11.5115 26.7659 11.2116 25.654C10.9118 24.542 10.9066 23.3712 11.1967 22.2566C11.4617 21.1866 11.9967 20.2033 12.7517 19.4016C13.3147 18.7135 14.0244 18.1598 14.829 17.7812C15.6335 17.4026 16.5125 17.2085 17.4017 17.2133H18.7683V20.0516C18.7689 20.1341 18.7519 20.2157 18.7185 20.291C18.6851 20.3664 18.636 20.4338 18.5745 20.4887C18.513 20.5435 18.4405 20.5847 18.3618 20.6093C18.2832 20.634 18.2002 20.6416 18.1183 20.6316C17.3248 20.3933 16.4697 20.4724 15.7334 20.8522C14.997 21.232 14.4369 21.8828 14.1711 22.6676C13.9052 23.4523 13.9545 24.3096 14.3084 25.0587C14.6623 25.8079 15.2933 26.3903 16.0683 26.6833C16.5183 26.9416 17.0217 27.0933 17.5383 27.1283C17.9383 27.145 18.3383 27.095 18.7183 26.975C19.3527 26.761 19.9045 26.3543 20.2968 25.8118C20.689 25.2692 20.9022 24.6178 20.9067 23.9483V9.58998C20.9067 9.43114 20.9696 9.27878 21.0818 9.1663C21.194 9.05383 21.3461 8.99042 21.505 8.98998H23.8633C24.0166 8.99017 24.1639 9.04898 24.2752 9.15434C24.3864 9.25971 24.4531 9.40365 24.4617 9.55665C24.5476 10.292 24.7812 11.0025 25.1483 11.6454C25.5155 12.2884 26.0087 12.8506 26.5983 13.2983C27.3951 13.8965 28.3415 14.2632 29.3333 14.3583C29.4819 14.371 29.6208 14.4371 29.7244 14.5444C29.8279 14.6516 29.8891 14.7927 29.8967 14.9416L29.8983 16.1883Z" fill="#01050F"/>
</svg>
