<svg width="80" height="80" viewBox="0 0 80 80" fill="none" xmlns="http://www.w3.org/2000/svg">
<rect width="80" height="80" rx="40" fill="#01050F"/>
<g clip-path="url(#clip0_199_1391)">
<path d="M40 20.5C40 19.3065 40.4741 18.1619 41.318 17.318C42.1619 16.4741 43.3065 16 44.5 16C45.6935 16 46.8381 16.4741 47.682 17.318C48.5259 18.1619 49 19.3065 49 20.5C49 21.6935 48.5259 22.8381 47.682 23.682C46.8381 24.5259 45.6935 25 44.5 25C43.3065 25 42.1619 24.5259 41.318 23.682C40.4741 22.8381 40 21.6935 40 20.5ZM36.8594 34.6844C36.7656 34.7219 36.6813 34.7594 36.5875 34.7969L35.8375 35.125C34.3 35.8094 33.1188 37.1125 32.5844 38.7062L32.3406 39.4375C31.8156 41.0125 30.1188 41.8563 28.5438 41.3313C26.9688 40.8063 26.125 39.1094 26.65 37.5344L26.8938 36.8031C27.9625 33.6062 30.325 31 33.4 29.6312L34.15 29.3031C36.1 28.4406 38.2094 27.9906 40.3469 27.9906C44.5281 27.9906 48.2969 30.5031 49.9 34.3563L51.3438 37.8156L53.35 38.8187C54.8313 39.5594 55.4313 41.3594 54.6906 42.8406C53.95 44.3219 52.15 44.9219 50.6688 44.1813L48.1563 42.9344C47.1906 42.4469 46.4313 41.6406 46.0188 40.6375L45.1188 38.4813L43.3094 44.6219L47.95 49.6844C48.4563 50.2375 48.8125 50.9031 49 51.6344L51.1563 60.2688C51.5594 61.8719 50.5844 63.5031 48.9719 63.9062C47.3594 64.3094 45.7375 63.3344 45.3344 61.7219L43.2719 53.4625L36.6438 46.2344C35.2563 44.725 34.7406 42.6156 35.2656 40.6375L36.85 34.6844H36.8594ZM31.4406 53.3125L33.7844 47.4625C33.9813 47.7438 34.2063 48.0063 34.4406 48.2688L38.2563 52.4313L36.8969 55.825C36.6719 56.3875 36.3344 56.9031 35.9031 57.3344L30.1188 63.1188C28.9469 64.2906 27.0438 64.2906 25.8719 63.1188C24.7 61.9469 24.7 60.0437 25.8719 58.8719L31.4406 53.3125Z" fill="white"/>
</g>
<defs>
<clipPath id="clip0_199_1391">
<rect width="30" height="48" fill="white" transform="translate(25 16)"/>
</clipPath>
</defs>
</svg>
